P3
# P3 format specifies that the colors are in ASCII.
# Then two numbers specify the quantity for columns
# and raws.
# Then `255` value means that max value for color is
# 255.
# Finally there are some triplets for color.
5 5
255
255 0 0
0 255 0
0 0 255
255 255 0
255 255 255
0 0 0
255 0 0
0 255 0
0 0 255
255 255 0
255 0 0
0 255 0
0 0 255
255 255 0
255 255 255
255 0 0
0 255 0
0 0 255
255 255 0
255 255 255
255 0 0
0 255 0
0 0 255
255 255 0
255 255 255
